<?xml version="1.0" encoding="UTF-8" standalone="no"?><svg xmlns="http://www.w3.org/2000/svg" xmlns:xlink="http://www.w3.org/1999/xlink" contentScriptType="application/ecmascript" contentStyleType="text/css" height="263px" preserveAspectRatio="none" style="width:279px;height:263px;" version="1.1" viewBox="0 0 279 263" width="279px" zoomAndPan="magnify"><defs><filter height="300%" id="fon2ldsdu6b7o" width="300%" x="-1" y="-1"><feGaussianBlur result="blurOut" stdDeviation="2.0"/><feColorMatrix in="blurOut" result="blurOut2" type="matrix" values="0 0 0 0 0 0 0 0 0 0 0 0 0 0 0 0 0 0 .4 0"/><feOffset dx="4.0" dy="4.0" in="blurOut2" result="blurOut3"/><feBlend in="SourceGraphic" in2="blurOut3" mode="normal"/></filter></defs><g><!--MD5=[8f63e0a1f0991d46290710b815fbcf7f]
cluster demo--><polygon fill="#FFFFFF" filter="url(#fon2ldsdu6b7o)" points="16,93,66,93,73,115.2969,262,115.2969,262,256,16,256,16,93" style="stroke: #000000; stroke-width: 1.5;"/><line style="stroke: #000000; stroke-width: 1.5;" x1="16" x2="73" y1="115.2969" y2="115.2969"/><text fill="#000000" font-family="sans-serif" font-size="14" font-weight="bold" lengthAdjust="spacingAndGlyphs" textLength="44" x="20" y="107.9951">demo</text><!--MD5=[08dbe06e87f91eb667838fe2f259c34a]
class Money--><rect codeLine="2" fill="#FEFECE" filter="url(#fon2ldsdu6b7o)" height="112.0234" id="Money" style="stroke: #A80036; stroke-width: 1.5;" width="214" x="32" y="128"/><ellipse cx="114.75" cy="144" fill="#ADD1B2" rx="11" ry="11" style="stroke: #A80036; stroke-width: 1.0;"/><path d="M117.0938,139.6719 C116.1563,139.2344 115.5625,139.0938 114.6875,139.0938 C112.0625,139.0938 110.0625,141.1719 110.0625,143.8906 L110.0625,145.0156 C110.0625,147.5938 112.1719,149.4844 115.0625,149.4844 C116.2813,149.4844 117.4375,149.1875 118.1875,148.6406 C118.7656,148.2344 119.0938,147.7813 119.0938,147.3906 C119.0938,146.9375 118.7031,146.5469 118.2344,146.5469 C118.0156,146.5469 117.8125,146.625 117.625,146.8125 C117.1719,147.2969 117.1719,147.2969 116.9844,147.3906 C116.5625,147.6563 115.875,147.7813 115.1094,147.7813 C113.0625,147.7813 111.7656,146.6875 111.7656,144.9844 L111.7656,143.8906 C111.7656,142.1094 113.0156,140.7969 114.75,140.7969 C115.3281,140.7969 115.9375,140.9531 116.4063,141.2031 C116.8906,141.4844 117.0625,141.7031 117.1563,142.1094 C117.2188,142.5156 117.25,142.6406 117.3906,142.7656 C117.5313,142.9063 117.7656,143.0156 117.9844,143.0156 C118.25,143.0156 118.5156,142.875 118.6875,142.6563 C118.7969,142.5 118.8281,142.3125 118.8281,141.8906 L118.8281,140.4688 C118.8281,140.0313 118.8125,139.9063 118.7188,139.75 C118.5625,139.4844 118.2813,139.3438 117.9844,139.3438 C117.6875,139.3438 117.4844,139.4375 117.2656,139.75 L117.0938,139.6719 Z " fill="#000000"/><text fill="#000000" font-family="sans-serif" font-size="12" lengthAdjust="spacingAndGlyphs" textLength="40" x="135.25" y="148.1543">Money</text><line style="stroke: #A80036; stroke-width: 1.5;" x1="33" x2="245" y1="160" y2="160"/><rect fill="none" height="6" style="stroke: #C82930; stroke-width: 1.0;" width="6" x="40" y="168"/><text fill="#000000" font-family="sans-serif" font-size="11" lengthAdjust="spacingAndGlyphs" textLength="64" x="52" y="174.2104">amount: int</text><rect fill="none" height="6" style="stroke: #C82930; stroke-width: 1.0;" width="6" x="40" y="180.8047"/><text fill="#000000" font-family="sans-serif" font-size="11" lengthAdjust="spacingAndGlyphs" textLength="89" x="52" y="187.0151">currency: String</text><line style="stroke: #A80036; stroke-width: 1.5;" x1="33" x2="245" y1="193.6094" y2="193.6094"/><ellipse cx="43" cy="204.6094" fill="#84BE84" rx="3" ry="3" style="stroke: #038048; stroke-width: 1.0;"/><text fill="#000000" font-family="sans-serif" font-size="11" lengthAdjust="spacingAndGlyphs" textLength="188" x="52" y="207.8198">this(amount: int, currency: String)</text><ellipse cx="43" cy="217.4141" fill="#84BE84" rx="3" ry="3" style="stroke: #038048; stroke-width: 1.0;"/><text fill="#000000" font-family="sans-serif" font-size="11" lengthAdjust="spacingAndGlyphs" textLength="141" x="52" y="220.6245">add(that: Money): Money</text><ellipse cx="43" cy="230.2188" fill="#84BE84" rx="3" ry="3" style="stroke: #038048; stroke-width: 1.0;"/><text fill="#000000" font-family="sans-serif" font-size="11" lengthAdjust="spacingAndGlyphs" textLength="92" x="52" y="233.4292">toString(): String</text><!--MD5=[84718776d214be480e4c259efcb737fc]
class Main--><rect codeLine="10" fill="#FEFECE" filter="url(#fon2ldsdu6b7o)" height="60.8047" id="Main" style="stroke: #A80036; stroke-width: 1.5;" width="134" x="72" y="7"/><ellipse cx="121.25" cy="23" fill="#ADD1B2" rx="11" ry="11" style="stroke: #A80036; stroke-width: 1.0;"/><path d="M123.5938,18.6719 C122.6563,18.2344 122.0625,18.0938 121.1875,18.0938 C118.5625,18.0938 116.5625,20.1719 116.5625,22.8906 L116.5625,24.0156 C116.5625,26.5938 118.6719,28.4844 121.5625,28.4844 C122.7813,28.4844 123.9375,28.1875 124.6875,27.6406 C125.2656,27.2344 125.5938,26.7813 125.5938,26.3906 C125.5938,25.9375 125.2031,25.5469 124.7344,25.5469 C124.5156,25.5469 124.3125,25.625 124.125,25.8125 C123.6719,26.2969 123.6719,26.2969 123.4844,26.3906 C123.0625,26.6563 122.375,26.7813 121.6094,26.7813 C119.5625,26.7813 118.2656,25.6875 118.2656,23.9844 L118.2656,22.8906 C118.2656,21.1094 119.5156,19.7969 121.25,19.7969 C121.8281,19.7969 122.4375,19.9531 122.9063,20.2031 C123.3906,20.4844 123.5625,20.7031 123.6563,21.1094 C123.7188,21.5156 123.75,21.6406 123.8906,21.7656 C124.0313,21.9063 124.2656,22.0156 124.4844,22.0156 C124.75,22.0156 125.0156,21.875 125.1875,21.6563 C125.2969,21.5 125.3281,21.3125 125.3281,20.8906 L125.3281,19.4688 C125.3281,19.0313 125.3125,18.9063 125.2188,18.75 C125.0625,18.4844 124.7813,18.3438 124.4844,18.3438 C124.1875,18.3438 123.9844,18.4375 123.7656,18.75 L123.5938,18.6719 Z " fill="#000000"/><text fill="#000000" font-family="sans-serif" font-size="12" lengthAdjust="spacingAndGlyphs" textLength="27" x="141.75" y="27.1543">Main</text><line style="stroke: #A80036; stroke-width: 1.5;" x1="73" x2="205" y1="39" y2="39"/><line style="stroke: #A80036; stroke-width: 1.5;" x1="73" x2="205" y1="47" y2="47"/><ellipse cx="83" cy="58" fill="#84BE84" rx="3" ry="3" style="stroke: #038048; stroke-width: 1.0;"/><text fill="#000000" font-family="sans-serif" font-size="11" lengthAdjust="spacingAndGlyphs" text-decoration="underline" textLength="108" x="92" y="61.2104">main(args: String[])</text><!--MD5=[92d7243e70a1209535ff89d019609de6]
link Main to Money--><path codeLine="13" d="M139,68.09 C139,85.265 139,107.45 139,127.739 " fill="none" id="Main-Money" style="stroke: #A80036; stroke-width: 1.0;"/><!--MD5=[c324d1795406445182b8be94c830ba38]
@startuml
package demo {
    class Money {
        - amount: int
        - currency: String
        + this(amount: int, currency: String)
        + add(that: Money): Money
        + toString(): String
    }
}
class Main {
    + {static} main(args: String[])
}
Main - - Money
@enduml

PlantUML version 1.2020.20beta11(Unknown compile time)
(GPL source distribution)
Java Runtime: Java(TM) SE Runtime Environment
JVM: Java HotSpot(TM) 64-Bit Server VM
Default Encoding: UTF-8
Language: en
Country: US
--></g></svg>